<?xml version="1.0" encoding="UTF-8" standalone="no"?>
<!-- Created with Inkscape (http://www.inkscape.org/) -->

<svg
   width="456"
   height="456"
   viewBox="0 0 120.65 120.65"
   version="1.1"
   id="svg1"
   xml:space="preserve"
   inkscape:version="1.4.2 (f4327f4, 2025-05-13)"
   sodipodi:docname="appiconfg.svg"
   xmlns:inkscape="http://www.inkscape.org/namespaces/inkscape"
   xmlns:sodipodi="http://sodipodi.sourceforge.net/DTD/sodipodi-0.dtd"
   xmlns="http://www.w3.org/2000/svg"
   xmlns:svg="http://www.w3.org/2000/svg"><sodipodi:namedview
     id="namedview1"
     pagecolor="#ffffff"
     bordercolor="#000000"
     borderopacity="0.25"
     inkscape:showpageshadow="2"
     inkscape:pageopacity="0.0"
     inkscape:pagecheckerboard="0"
     inkscape:deskcolor="#d1d1d1"
     inkscape:document-units="mm"
     inkscape:zoom="1.4142136"
     inkscape:cx="-206.12162"
     inkscape:cy="322.44068"
     inkscape:window-width="3840"
     inkscape:window-height="2036"
     inkscape:window-x="3828"
     inkscape:window-y="-12"
     inkscape:window-maximized="1"
     inkscape:current-layer="layer1" /><defs
     id="defs1" /><g
     inkscape:label="Calque 1"
     inkscape:groupmode="layer"
     id="layer1"
     style="display:inline"
     transform="matrix(0.64133046,0,0,0.64133046,28.481958,28.589595)"><path
       id="rect4"
       style="display:inline;opacity:1;fill:#9be53c;fill-opacity:1;stroke:#74ff2b;stroke-width:0;paint-order:stroke fill markers"
       d="m 39.871957,10.411313 v 1.722806 h 8.22e-4 v 7.938655 h -19.62919 v -0.02969 h -0.05642 c -0.04472,0.02927 -0.08923,0.0584 -0.133633,0.08739 h 0.174359 v 19.628787 h -9.690308 v 19.583827 h 9.687764 v 19.404798 l 0.131087,0.271933 v -0.04412 h 19.629218 v 9.642367 h 19.531645 l 0.03097,-0.01355 H 59.5139 V 78.907823 H 79.095606 V 59.290908 h 9.681832 v -19.6114 h 0.02676 l -0.02922,-0.03309 v 0.05133 H 79.077789 V 20.19071 l -0.03564,-0.114118 H 59.453237 V 10.411737 H 44.009069 v -4.24e-4 z m 48.92075,48.897412 v 0.06067 l 0.01141,-0.06067 z" /><path
       id="rect1-2-3-4-7-9-6-6-6-0"
       style="display:inline;fill:#664400;stroke:#74ff2b;stroke-width:0;paint-order:stroke fill markers"
       d="m 79.136862,78.87666 v 9.696799 H 59.507923 V 78.87666 Z m -19.602629,9.710033 v 9.696801 H 39.905294 V 88.586693 Z M 39.97955,78.944379 v 9.696792 H 20.350612 V 78.944379 Z M 79.076064,10.348467 v 9.6968 H 59.447126 v -9.6968 z M 59.472503,0.68390999 V 10.380709 H 39.843564 V 0.68390999 Z M 39.866595,10.3449 v 9.6968 H 20.237658 v -9.6968 z m 39.223192,48.914905 h 9.696804 v 19.628939 h -9.696804 z m 9.68169,-19.611344 h 9.696806 v 19.62894 H 88.771477 Z M 79.071924,20.037467 h 9.696803 v 19.628939 h -9.696803 z m -68.546985,0.06177 h 9.696799 v 19.628938 h -9.696799 z m -0.0026,39.212683 h 9.696816 V 78.940865 H 10.522327 Z M 0.83478863,39.706801 H 10.531588 V 59.33574 H 0.83478863 Z" /><rect
       style="opacity:1;fill:#fff2b0;fill-opacity:1;stroke:#74ff2b;stroke-width:0;paint-order:stroke fill markers"
       id="rect3"
       width="19.752832"
       height="19.752832"
       x="39.230732"
       y="39.604565" /><rect
       style="fill:#070707;fill-opacity:1;stroke:#74ff2b;stroke-width:0;paint-order:stroke fill markers"
       id="rect4-4-8-3-0"
       width="9.528141"
       height="9.528141"
       x="20.165621"
       y="49.858219" /><rect
       style="fill:#070707;fill-opacity:1;stroke:#74ff2b;stroke-width:0;paint-order:stroke fill markers"
       id="rect4-4-8-3-0-9"
       width="9.528141"
       height="9.528141"
       x="29.689037"
       y="59.353771" /><rect
       style="fill:#070707;fill-opacity:1;stroke:#74ff2b;stroke-width:0;paint-order:stroke fill markers"
       id="rect4-4-8-3-0-9-6"
       width="9.528141"
       height="9.528141"
       x="58.97966"
       y="59.357445" /><rect
       style="fill:#070707;fill-opacity:1;stroke:#74ff2b;stroke-width:0;paint-order:stroke fill markers"
       id="rect4-4-8-3-0-9-6-7"
       width="9.528141"
       height="9.528141"
       x="58.978897"
       y="30.084585" /><rect
       style="display:inline;fill:#070707;fill-opacity:1;stroke:#74ff2b;stroke-width:0;paint-order:stroke fill markers"
       id="rect4-4-8-3-0-9-6-7-0"
       width="9.528141"
       height="9.528141"
       x="39.23053"
       y="30.073162" /></g></svg>
